<mxfile host="app.diagrams.net" agent="Mozilla/5.0 (Windows NT 10.0; Win64; x64; rv:130.0) Gecko/20100101 Firefox/130.0" version="24.7.13">
  <diagram name="Page-1" id="qr09hcUnwPf8HoibBXiG">
    <mxGraphModel dx="1050" dy="1706" grid="1" gridSize="10" guides="1" tooltips="1" connect="1" arrows="1" fold="1" page="1" pageScale="1" pageWidth="850" pageHeight="1100" math="0" shadow="0">
      <root>
        <mxCell id="0" />
        <mxCell id="1" parent="0" />
        <mxCell id="yBm1mTRxKIPzh1IjG3-S-1" value="" style="shape=image;verticalLabelPosition=bottom;labelBackgroundColor=default;verticalAlign=top;aspect=fixed;imageAspect=0;image=data:image/png,iVBORw0KGgoAAAANSUhEUgAAAJIAAADZCAYAAADL5GkhAAAACXBIWXMAACE3AAAhNwEzWJ96AAAHhUlEQVR4nO3du3UbVxSF4S0tpVhyaERUB3YHUgnuwAyNjB34lKAMKdSB3QHZgd0BFSG1jALoQCOblvCcu+8T/xd5eTB3zgI3NiFyiPvi6elJQKqXtQfAGAgSLAgSLAgSLAgSLAgSLAgSLAgSLAgSLAgSLAgSLAgSLAgSLAgSLAgSLAgSLAgSLAgSLAgSLAgSLAgSLAgSLAgSLAgSLAgSLAgSLAgSLAgSLAgSLAgSLAgSLAgSLAgSLAgSLAgSLAgSLAgSLAgSLAgSLAgSLAgSLAgSLAgSLF58/8vf7yS9qzxHku16EbVnSLFc7aL2DInuX+lziH6tPEiqqD1Aot6ff761wYMgwYIgwYIgwYIgwYIgwYIgwYIgwYIgwYIgwYIgwYIgwYIgwYIgwYIgwYIgwYIgwYIgwYIgwYIgwYIgwYIgwYIgwYIgwYIgwYIgwYIgwYIgwYIgwYIgwYIgwYIgwYIgwWKIIC1Xu+9qzzBXz7M/91LSpvYQBne1B0jQ8+xfbF5u14tHSR9qT5LorsdX9jRz70H6sF0vHr98a4uakxi8Vp9fkDt9nr1nIU3vkUZppdoDXGKkNpL+/2Y7qozi83q52t3WHuICw7SR9CxIg7RS1B7gHKO1kfTtP/+j6Ch+N5200lBtJH0VJFopvxHbSNr/A8koMko+rbfSrQZrI2lPkKak/V5gmJyi9gBHDNdG0uFfkbzPO0t2TbbSNNNN7TkSxb7/uTdI2/XiXtJDxmFKiNoD7BG1B0i0t42k47+0jSyjlNNUK43cRtKRINFKdlF7gEQH20g6fRtJWEcpr4lWGqSNjr5vPhokWskmag+Q6GG7Xvxx7AHn3NgWnlmqqdpKg7RRnHrAySDRSl1f2+FhysBR595qG0mj1Fella6ljaQzg0QrdXVNp7PaSLrs5v+YNUo7bpar3U+lLnZNbSRdEKRBWqnk77mi4LVyOLuNpMv/HCkufHxr3i5Xu3e5L3JtbSRdGKRBWikGuUZOF7WRNO8PJGPGOS3J2krX2EbSjCBNSf3z0vMaExnX7v1+o4vbSJr/J9u936+UpZWmNX9wr1tYzDlpVpC268VG0sc55zYkOlmzpFltJKV9iEQknNsCaytNa711rVdJzD1xdpBopaxr1TC7jaT0j7WJxPNrs7TSIG2U9L43KUi0knWNmj5u14vfUhZwfNBWGNaoKamVBmmjSF0gOUi0UvcvpI/T1zCJ66P/wrROLbNaiTb6jyVIV9xKc85piaWNJO+HkYZxrRreLle7H899MG30f7YgDdJKl/yeLHINUYitjST/xyOHeb3Sfl6udm9OPYg2+pY1SIO0Upge0zJrG0l5PrA9MqxZ0jmtdPZ7qUaFe0F7kK6klXq+jcbeRlK+LSQ2mdYt5VQrvZf0qdAsbpFj0VxB6vmJ/iIOHdiuF3+pz1bK0kZSpiB1/EQ/N2IrRa6Fc+6O1OMT/bU4dKDDF0u2NpIyBqnDJ3qfkVopci6ee7+2np7oQ+LQgY5eLJ8kJd1vdErWIHX0RB8zQiu9n74W2ZTYQbKHJ/qUOHRg+gJtik1yuU8q8GLOHqQraqVWZW8jqdyetqO30qPa3MOlSBtJhYJ0Ja0Uhea4RJE2ksrusj1CK90eOtBgKxVrI6lgkAZppVObMEepQc5QrI2kso0k9d9KRzdhbqiViraRVDhItFIxRdtIKt9IUv9Bar2VireRVCFI0yulhfpP0XIrFW8jqU4jSW3Uf4pWW6lKG0mVgtRA/Tu02EpV2kiq10gSreRWrY2kikGileyqtZFUt5EkWsmp6r+GqwaJVrL5ULONpPqNJNFKDpF5/ZOqB+lKWmmT8dpHNy0upXqQJlF7gESnWule+fZwiUzrXqSJIF1JK0WGazbRRlIjQZpE7QESvdbx+5Xu5W+lMK83WzNBGqWVThwP47WaaSOpoSBNovYAiY5uwmxupTCtY9FUkAZppUg8fo6m2khqLEiTqD1AohKtFInn2zUXpOmVNvp2p6eOH9NcG0kNBmkStQdIlLOVYuZ5WTUZpCvZhPnU8X2abCOp0SBNovYAiXK0UiTMk1WzQaKVvtFsG0kNB2kStQdI5GylMMyTTdNBopX+9dByG0mNB2kStQdI5GilMM6TRfNBupJW2hw5lrRpcSnNB2kStQdIdKqVNjq8W0JkmMeuiyBdSSvtO95FG0mdBGkStQdINKeVIuM8Vt0EaZBWuj1xPJ79dzdtJHUUpEnUHiDR0U2Yv2qlKDCPTVdBGqSV4ozjXbWR1FmQJlF7gETntNIle+s24cXT01PtGS62XO0eJd3UniPBw3a9eFd7CKceG0kavJV61GWQrmS70650GaRJ1B4g0VCt1G2QaKW2dBukSdQeINEwrdR1kGildryqPYDBnTr8uctzy9XuTes3rp3S5c+R0J6uv7WhHQQJFgQJFgQJFgQJFgQJFgQJFgQJFgQJFgQJFgQJFgQJFgQJFgQJFgQJFgQJFgQJFgQJFgQJFgQJFgQJFgQJFgQJFgQJFgQJFgQJFgQJFgQJFgQJFgQJFgQJFgQJFgQJFgQJFgQJFgQJFgQJFgQJFv8AR3ZxfUkPwhIAAAAASUVORK5CYII=;" vertex="1" parent="1">
          <mxGeometry y="-4" width="146" height="217" as="geometry" />
        </mxCell>
        <mxCell id="yBm1mTRxKIPzh1IjG3-S-2" value="" style="shape=image;verticalLabelPosition=bottom;labelBackgroundColor=default;verticalAlign=top;aspect=fixed;imageAspect=0;image=data:image/png,iVBORw0KGgoAAAANSUhEUgAAAMgAAADICAMAAACahl6sAAAAY1BMVEUAAAAAAAAAAAAAAAAAAAAAAAAAAAAAAAAAAAAAAAAAAAAAAAAAAAAAAAAAAAAAAACAgIDv7+8gICD////f398QEBBgYGCfn5+vr69AQEBQUFC/v7/Pz88wMDCPj49wcHAAAADZiLQHAAAAEHRSTlMAQIC/EO/fzyCfYDBQcI+vit6a2QAABzRJREFUeF7sz7ENgDAMRUHs76AEDKyQ/aekoKGhx9K7DW75OwAAAABAt0fZwJ5+qc03yQ+LQofIU/PTOrZeYXFTc25NisJAFF5QLiqoIYSboP3/f+VW7dZMo2GK6UbTyXmbN0+lv56TJkleZrCq9FwE7gKVHE7e2iguQFJa+gjM/pgCWckh981GnABPflk5JsDXwZsCi1LYpCT2A44LbFYayfsoEniHzvuwlwOVnkQDVQrvUynYrOCtukiV1wHerCwXwWMHb1dyEvCRwQeUFIH7QB1D94FOQveBTgL3gXJHvOUj0N51gA8rdRO8Svi4Mhc+InCgswPQybF9ummtrkDT58dF5GDS639qicDn3gFS6//qgaTdZ33kCWNBWEsCpV+FBZ3+kvGouAqgqtLfovJ++WDHSoGqKxqpgajPjVZiIEtp1AA0pf78C4FGz3Rj52D5jHXTc1V+LEkOPNRRd+aSyBPS6icpYFEiT4hR+lmND5SUwEUdNQLIB5UU2DFLfzM/yW97IwB2zOombuCCg2DvtVEfYGQGLkjebiTh9956RssDhHdYBfBj1nXWv2rp2jpsQL16KjPh2toQs7qnOutka+u0IWYNz39WogOVeAPquECswJUJb3Hb142h4gauvSgiRr2W0p0buApRRBoL7oobuGLRz7e13W65gWsnyXqPqNuL1MptSnYbUEcpZuCS+7KDPOhqKbM8xMZC7JjVLadIKSN7PurL49NeqG1FrN5rZ90BFyoMIzcLdSsQyyT5iIv69PMWhaCd1ADljoOs/geLSsZIzJ9mPWAZ90bICH+a1ZpF3G8BGBn1k8ZpEffJeyO9fpEalnBvvTfSapTdo8y3PSNg5EhBXS+oM7bPh4CRiBOz6laj6skO+J4bqbGeHhqlGsSdGrjOEkaGeYDvlf25Cu11AntdYszCsdyoUaN5gahyfwaCGLMwwJtOo9Rk7R5db6x25JhVI/wzNRbujj/2XMgx64rUqNfAUhMDl8AUpVmq/+kJlAqgoQWuTODryGh1JBuU3ppCOjxck1Nj1rCADjLekgJX7P6Tbvsjxs0clK7HwEVoWu5oN1ZKRE31HBRFwd39aYGrjTrK3PSCakLScgdJbaFugWKpJyDiCpIBUV9rzqjW9dmHM6yqW62XSWlLleMDQidCzLrDTzKjvXskTOfc1BYiUFE2wjWh+bqpLbUYPNZBaQiV5aJvNfYvWwdl3Xfs/BD2+OtpaDUScM9d32edCCcwzTMo97XA6BT3lrSBffwW98j1jQtDOqX8MpZYiSdOj5k+bNTXQVmH6uj8aHxN/vBhuvWUkjm/rDAgueSZ5GjWCHHYuIbrlyrK3P6mtWqNxO2kDFzqFPAdRP7Il5+4Ar3niry7UhH+BVfchwgUV4AXqDOBjiVwOTSkV2uKwAFBlQL38oN8KyFD0AWcBPruzi5sH6h9FrgPdHIQ8CHASVAPuJ0F+pXLDWOIT0+eyGmFMB4N9vm2RPbRyTLwJwFRp8yzt+f4KpOwlwOVb4xeGdIhrWgD9CkOeIO0gjZ8U8QosAxt+KQ8ToGiv+2d3arkIBCEj+2/0eQV6v2fchkz4Mm2cTQXyyx0Q91okHxG1KGL6fjFdQpytJiLI317cYK8e3wIGxvFVysMiiv4WLb/rV4HkdYe73BaR8rqGwFEIpFIJBKJRBI5dRrT70Zeis4oekWqFd0GTxr1DnajN62NSaU6elZm0eLASfLF6gLgNmdi23OdJ91tJSsF6M8Fpmgt/eG7HrrMQLpZrCEIS+0MQfjgafEfRFQPxIYbkALYsp0riY48BvGqRrGAmwGJgCX1XnwUFv2LsdvqTR9EM0fPAEQ3xyfUBMhjY6CDi4DpgSDegqhlkJ8doM8g21MXQQZIAcRBDgukLsgOHOYJSPoMEp6CaCC8vgoHoQxg64EEAF4tghgHhIml5Z4trVBd6QXIHOQ1h868QXhOUasVkM0D+8yulQFLZhlkrwgG0BykOraOBsKSPj5NgFj9Cst2FAbC3dMuLJnHt3PPCxykdhMDqUquZQpmz5EyA2L2J77mBACljrpzkNoOxUGqkgcAHT6AODrDA9gnQDQAv9MrypLbz9ast4M1HOQ8+0wD6aRK7Da5a7W9YwSSHmV9FXBsDvChAKkH8nMAvoH0Sgu6KZB2kIxBDiA9cpnkmkK3ycJ3QYwDdgADJ8E2BmGvPgTRT3ZfA7j3VMECioM008PgHFKTIAWIMyB5GYQAaucCIu+qnQwkXLe9MAdiHJA+gpQnhhsHhN/TbhhIjfg3iHMxqUqUHKCnbr8q+ev1V727TpnfM+NSON9q8vabgeNilCsMpDmZbysW2DACufeaqZvCHdku2W/4coz3IOG6E5iimWHpDsTeVggOHORUiEvVofjv61zMpWp8aF0b+8SqEGmibPiY3erzrZ11VV3GMZkoHkTpn6e9RCKRSCQSiUQikUgkEkn8AfODM2NK4+W8AAAAAElFTkSuQmCC;" vertex="1" parent="1">
          <mxGeometry x="219" y="26" width="170" height="170" as="geometry" />
        </mxCell>
        <mxCell id="yBm1mTRxKIPzh1IjG3-S-4" value="" style="endArrow=classic;html=1;rounded=0;strokeWidth=6;" edge="1" parent="1">
          <mxGeometry width="50" height="50" relative="1" as="geometry">
            <mxPoint x="160" y="120" as="sourcePoint" />
            <mxPoint x="220" y="120" as="targetPoint" />
          </mxGeometry>
        </mxCell>
      </root>
    </mxGraphModel>
  </diagram>
</mxfile>
